# xmcd CD database file
#
# Track frame offsets:
#	150
#	26071
#	43185
#	60924
#	66086
#	79120
#	97720
#	120219
#	145644
#	151415
#	174086
#	189628
#	195073
#	213835
#	231253
#	247566
#
# Disc length: 3365 seconds
#
# Revision: 0
# Processed by: cddbd v1.5.1PL0 Copyright (c) Steve Scherf et al.
# Submitted via: CDex 1.51
#
DISCID=b50d2310
DTITLE=Piccola Bottega Baltazar - Poco tempo, troppa fame (Omaggio a Fabrizio de André)
DYEAR=2002
DGENRE=Country
TTITLE0=Creuza de mä
TTITLE1=La ballata del Michè
TTITLE2=A foghi spenti
TTITLE3=Ouverture per serrature
TTITLE4=Il gorilla
TTITLE5=La città vecchia
TTITLE6=Delitti di paese
TTITLE7=La canzone di Marinella
TTITLE8=Khorakhané (introduzione)
TTITLE9=Dolcenera
TTITLE10=Il pescatore
TTITLE11=L'asino di Porto Viro
TTITLE12=Nebbie di carnevale
TTITLE13=Bocca di rosa
TTITLE14=Via del campo
TTITLE15=Nei vicoli, di notte
EXTD=YEAR: 2002
EXTT0=
EXTT1=
EXTT2=
EXTT3=
EXTT4=
EXTT5=
EXTT6=
EXTT7=
EXTT8=
EXTT9=
EXTT10=
EXTT11=
EXTT12=
EXTT13=
EXTT14=
EXTT15=
PLAYORDER=
